<svg width="24" height="25" viewBox="0 0 24 25" fill="none" xmlns="http://www.w3.org/2000/svg">
<g clip-path="url(#clip0_154_203)">
<path d="M17.6129 16.1062C19.0653 14.1633 19.7159 11.7544 19.4343 9.36154C19.1528 6.96866 17.96 4.76821 16.0945 3.20043C14.2291 1.63265 11.8285 0.813153 9.37314 0.905897C6.91777 0.998642 4.58866 1.99678 2.85178 3.70063C1.11491 5.40448 0.0983577 7.68838 0.00550496 10.0954C-0.0873478 12.5024 0.750346 14.8551 2.35099 16.6826C3.95164 18.5102 6.1972 19.6779 8.63841 19.9522C11.0796 20.2265 13.5365 19.587 15.5174 18.1618H15.5159C15.5609 18.2206 15.6089 18.2765 15.6629 18.3309L21.4379 23.9921C21.7191 24.268 22.1007 24.4231 22.4986 24.4232C22.8965 24.4233 23.2782 24.2685 23.5596 23.9928C23.8411 23.7171 23.9993 23.3431 23.9994 22.953C23.9996 22.5629 23.8416 22.1888 23.5604 21.9129L17.7854 16.2517C17.7318 16.1985 17.6741 16.1494 17.6129 16.1047V16.1062ZM17.9999 10.4538C17.9999 11.5159 17.7865 12.5675 17.3719 13.5487C16.9573 14.5299 16.3496 15.4215 15.5835 16.1725C14.8174 16.9234 13.908 17.5192 12.907 17.9256C11.9061 18.332 10.8333 18.5412 9.74988 18.5412C8.66648 18.5412 7.59368 18.332 6.59274 17.9256C5.59181 17.5192 4.68233 16.9234 3.91625 16.1725C3.15017 15.4215 2.54248 14.5299 2.12788 13.5487C1.71327 12.5675 1.49988 11.5159 1.49988 10.4538C1.49988 8.30895 2.36908 6.25191 3.91625 4.73523C5.46343 3.21856 7.56185 2.36651 9.74988 2.36651C11.9379 2.36651 14.0363 3.21856 15.5835 4.73523C17.1307 6.25191 17.9999 8.30895 17.9999 10.4538Z" fill="white"/>
</g>
<defs>
<clipPath id="clip0_154_203">
<rect width="24" height="23.5268" fill="white" transform="translate(0 0.895996)"/>
</clipPath>
</defs>
</svg>
